<svg xmlns="http://www.w3.org/2000/svg" width="20" height="20" viewBox="0 0 20 20" fill="none">
  <g clip-path="url(#clip0_13_2151)">
    <path d="M3.3335 15.8333C3.3335 16.2754 3.50909 16.6993 3.82165 17.0118C4.13421 17.3244 4.55814 17.5 5.00016 17.5C5.44219 17.5 5.86611 17.3244 6.17867 17.0118C6.49123 16.6993 6.66683 16.2754 6.66683 15.8333C6.66683 15.3913 6.49123 14.9674 6.17867 14.6548C5.86611 14.3423 5.44219 14.1667 5.00016 14.1667C4.55814 14.1667 4.13421 14.3423 3.82165 14.6548C3.50909 14.9674 3.3335 15.3913 3.3335 15.8333Z" stroke="#3A3A3A" stroke-width="1.5" stroke-linecap="round" stroke-linejoin="round"/>
    <path d="M12.5 15.8333C12.5 16.2754 12.6756 16.6993 12.9882 17.0118C13.3007 17.3244 13.7246 17.5 14.1667 17.5C14.6087 17.5 15.0326 17.3244 15.3452 17.0118C15.6577 16.6993 15.8333 16.2754 15.8333 15.8333C15.8333 15.3913 15.6577 14.9674 15.3452 14.6548C15.0326 14.3423 14.6087 14.1667 14.1667 14.1667C13.7246 14.1667 13.3007 14.3423 12.9882 14.6548C12.6756 14.9674 12.5 15.3913 12.5 15.8333Z" stroke="#3A3A3A" stroke-width="1.5" stroke-linecap="round" stroke-linejoin="round"/>
    <path d="M14.1668 14.1667H5.00016V2.5H3.3335" stroke="#3A3A3A" stroke-width="1.5" stroke-linecap="round" stroke-linejoin="round"/>
    <path d="M5 4.16667L16.6667 5.00001L15.8333 10.8333H5" stroke="#3A3A3A" stroke-width="1.5" stroke-linecap="round" stroke-linejoin="round"/>
  </g>
  <defs>
    <clipPath id="clip0_13_2151">
      <rect width="20" height="20" fill="white"/>
    </clipPath>
  </defs>
</svg>