<svg width="158" height="20" viewBox="0 0 158 20" fill="none" xmlns="http://www.w3.org/2000/svg">
<path d="M8.03852 15.88C6.73185 15.88 5.59185 15.6667 4.61852 15.24C3.64518 14.8 2.83852 14.2133 2.19852 13.48C1.57185 12.7467 1.10518 11.9333 0.798516 11.04C0.491849 10.1467 0.338516 9.25333 0.338516 8.36V7.92C0.338516 7 0.491849 6.1 0.798516 5.22C1.10518 4.34 1.56518 3.54 2.17852 2.82C2.80518 2.1 3.57852 1.52667 4.49852 1.1C5.43185 0.673333 6.50518 0.459999 7.71852 0.459999C9.03852 0.459999 10.2052 0.706666 11.2185 1.2C12.2318 1.68 13.0452 2.35333 13.6585 3.22C14.2719 4.07333 14.6252 5.06667 14.7185 6.2H11.4385C11.3585 5.66667 11.1452 5.2 10.7985 4.8C10.4652 4.4 10.0318 4.08667 9.49852 3.86C8.97852 3.63333 8.38518 3.52 7.71852 3.52C7.07852 3.52 6.50518 3.63333 5.99852 3.86C5.50518 4.08667 5.07852 4.40667 4.71852 4.82C4.37185 5.23333 4.10518 5.72667 3.91852 6.3C3.74518 6.86 3.65852 7.48 3.65852 8.16C3.65852 8.86667 3.75185 9.51333 3.93852 10.1C4.13852 10.6733 4.42518 11.1733 4.79852 11.6C5.17185 12.0133 5.63185 12.3333 6.17852 12.56C6.73852 12.7867 7.35852 12.9 8.03852 12.9C8.94518 12.9 9.73185 12.7133 10.3985 12.34C11.0652 11.9667 11.5452 11.4733 11.8385 10.86L11.4385 13.1V9.62H14.4585V12.74C13.8318 13.7533 12.9652 14.5333 11.8585 15.08C10.7652 15.6133 9.49185 15.88 8.03852 15.88ZM7.61852 10.26V7.9H15.6585V10.26H7.61852ZM24.2187 15.5V12.26H23.6787V8.74C23.6787 8.18 23.5453 7.76 23.2787 7.48C23.012 7.2 22.5853 7.06 21.9987 7.06C21.7053 7.06 21.3187 7.06667 20.8387 7.08C20.3587 7.09333 19.8653 7.11333 19.3587 7.14C18.852 7.16667 18.392 7.19333 17.9787 7.22V4.52C18.2853 4.49333 18.6453 4.46667 19.0587 4.44C19.472 4.41333 19.8987 4.39333 20.3387 4.38C20.7787 4.36667 21.192 4.36 21.5787 4.36C22.6987 4.36 23.6387 4.52 24.3987 4.84C25.172 5.16 25.7587 5.64667 26.1587 6.3C26.5587 6.94 26.7587 7.76667 26.7587 8.78V15.5H24.2187ZM20.7187 15.78C19.932 15.78 19.2387 15.64 18.6387 15.36C18.052 15.08 17.592 14.68 17.2587 14.16C16.9253 13.6267 16.7587 12.9933 16.7587 12.26C16.7587 11.46 16.9653 10.8067 17.3787 10.3C17.792 9.78 18.372 9.4 19.1187 9.16C19.8653 8.90667 20.7253 8.78 21.6987 8.78H24.0387V10.56H21.6787C21.1187 10.56 20.6853 10.7 20.3787 10.98C20.0853 11.2467 19.9387 11.6133 19.9387 12.08C19.9387 12.52 20.0853 12.88 20.3787 13.16C20.6853 13.4267 21.1187 13.56 21.6787 13.56C22.0387 13.56 22.3587 13.5 22.6387 13.38C22.932 13.2467 23.172 13.0267 23.3587 12.72C23.5453 12.4133 23.652 11.9867 23.6787 11.44L24.4387 12.24C24.372 13 24.1853 13.64 23.8787 14.16C23.5853 14.68 23.172 15.08 22.6387 15.36C22.1187 15.64 21.4787 15.78 20.7187 15.78ZM33.9937 15.86C33.2203 15.86 32.5137 15.72 31.8737 15.44C31.247 15.16 30.7003 14.7733 30.2337 14.28C29.767 13.7733 29.407 13.18 29.1537 12.5C28.9137 11.82 28.7937 11.0867 28.7937 10.3V9.84C28.7937 9.05333 28.907 8.32 29.1337 7.64C29.3737 6.96 29.7137 6.36667 30.1537 5.86C30.607 5.34 31.147 4.94 31.7737 4.66C32.4003 4.36667 33.1003 4.22 33.8737 4.22C34.7537 4.22 35.5137 4.41333 36.1537 4.8C36.7937 5.17333 37.2937 5.73333 37.6537 6.48C38.0137 7.21333 38.2137 8.12 38.2537 9.2L37.4137 8.42V0.9H40.6337V15.5H38.0937V10.96H38.5337C38.4937 12 38.2737 12.8867 37.8737 13.62C37.487 14.3533 36.9603 14.9133 36.2937 15.3C35.627 15.6733 34.8603 15.86 33.9937 15.86ZM34.7937 13.18C35.287 13.18 35.7337 13.0733 36.1337 12.86C36.547 12.6333 36.8737 12.3067 37.1137 11.88C37.367 11.4533 37.4937 10.94 37.4937 10.34V9.6C37.4937 9.01333 37.367 8.52 37.1137 8.12C36.8603 7.72 36.527 7.41333 36.1137 7.2C35.7003 6.98667 35.2537 6.88 34.7737 6.88C34.2403 6.88 33.7603 7.02 33.3337 7.3C32.9203 7.56667 32.5937 7.94 32.3537 8.42C32.1137 8.88667 31.9937 9.43333 31.9937 10.06C31.9937 10.7 32.1137 11.2533 32.3537 11.72C32.5937 12.1867 32.927 12.5467 33.3537 12.8C33.7803 13.0533 34.2603 13.18 34.7937 13.18ZM47.8562 19.86C47.3228 19.86 46.7762 19.84 46.2162 19.8C45.6562 19.76 45.1428 19.7067 44.6762 19.64V16.94C45.1428 17.0067 45.6562 17.06 46.2162 17.1C46.7895 17.1533 47.3095 17.18 47.7762 17.18C48.6428 17.18 49.3428 17.08 49.8762 16.88C50.4228 16.68 50.8228 16.3733 51.0762 15.96C51.3295 15.56 51.4562 15.04 51.4562 14.4V12.22L52.0362 10.94C52.0095 11.9133 51.8162 12.7467 51.4562 13.44C51.1095 14.1333 50.6228 14.6667 49.9962 15.04C49.3695 15.4 48.6228 15.58 47.7562 15.58C47.0095 15.58 46.3295 15.4467 45.7162 15.18C45.1162 14.9 44.6028 14.5133 44.1762 14.02C43.7495 13.5267 43.4228 12.9533 43.1962 12.3C42.9695 11.6333 42.8562 10.9133 42.8562 10.14V9.68C42.8562 8.90667 42.9762 8.18667 43.2162 7.52C43.4562 6.85333 43.8028 6.27333 44.2562 5.78C44.7095 5.28667 45.2495 4.90667 45.8762 4.64C46.5028 4.36 47.1962 4.22 47.9562 4.22C48.8362 4.22 49.5962 4.41333 50.2362 4.8C50.8895 5.18667 51.4028 5.75333 51.7762 6.5C52.1495 7.24667 52.3495 8.14667 52.3762 9.2L51.9362 9.32V4.54H54.4762V14.2C54.4762 15.5467 54.2362 16.6333 53.7562 17.46C53.2762 18.2867 52.5428 18.8933 51.5562 19.28C50.5828 19.6667 49.3495 19.86 47.8562 19.86ZM48.7562 12.88C49.2495 12.88 49.6962 12.7733 50.0962 12.56C50.4962 12.3333 50.8095 12.0133 51.0362 11.6C51.2762 11.1867 51.3962 10.6867 51.3962 10.1V9.52C51.3962 8.94667 51.2695 8.46667 51.0162 8.08C50.7762 7.68 50.4562 7.38 50.0562 7.18C49.6562 6.96667 49.2295 6.86 48.7762 6.86C48.2428 6.86 47.7695 6.98667 47.3562 7.24C46.9428 7.49333 46.6228 7.84667 46.3962 8.3C46.1695 8.75333 46.0562 9.28667 46.0562 9.9C46.0562 10.5267 46.1695 11.0667 46.3962 11.52C46.6362 11.96 46.9562 12.3 47.3562 12.54C47.7695 12.7667 48.2362 12.88 48.7562 12.88ZM62.2671 15.88C61.3338 15.88 60.5071 15.72 59.7871 15.4C59.0804 15.08 58.4871 14.6533 58.0071 14.12C57.5404 13.5733 57.1804 12.9667 56.9271 12.3C56.6871 11.62 56.5671 10.9267 56.5671 10.22V9.82C56.5671 9.08667 56.6871 8.38667 56.9271 7.72C57.1804 7.04 57.5404 6.43333 58.0071 5.9C58.4738 5.36667 59.0538 4.94667 59.7471 4.64C60.4538 4.32 61.2538 4.16 62.1471 4.16C63.3204 4.16 64.3071 4.42667 65.1071 4.96C65.9204 5.48 66.5404 6.16667 66.9671 7.02C67.3938 7.86 67.6071 8.78 67.6071 9.78V10.86H57.9071V9.04H65.6671L64.6271 9.88C64.6271 9.22667 64.5338 8.66667 64.3471 8.2C64.1604 7.73333 63.8804 7.38 63.5071 7.14C63.1471 6.88667 62.6938 6.76 62.1471 6.76C61.5871 6.76 61.1138 6.88667 60.7271 7.14C60.3404 7.39333 60.0471 7.76667 59.8471 8.26C59.6471 8.74 59.5471 9.33333 59.5471 10.04C59.5471 10.6933 59.6404 11.2667 59.8271 11.76C60.0138 12.24 60.3071 12.6133 60.7071 12.88C61.1071 13.1467 61.6271 13.28 62.2671 13.28C62.8538 13.28 63.3338 13.1667 63.7071 12.94C64.0804 12.7133 64.3338 12.4333 64.4671 12.1H67.4071C67.2471 12.8333 66.9338 13.4867 66.4671 14.06C66.0004 14.6333 65.4138 15.08 64.7071 15.4C64.0004 15.72 63.1871 15.88 62.2671 15.88ZM74.7076 15.64C73.6009 15.64 72.7076 15.5067 72.0276 15.24C71.3476 14.96 70.8476 14.5 70.5276 13.86C70.2209 13.2067 70.0676 12.3267 70.0676 11.22V1.58H73.0476V11.34C73.0476 11.86 73.1809 12.26 73.4476 12.54C73.7276 12.8067 74.1209 12.94 74.6276 12.94H76.2476V15.64H74.7076ZM68.4076 6.88V4.54H76.2476V6.88H68.4076ZM92.2187 15.5V0.9H95.4987V15.5H92.2187ZM82.7787 15.5V0.9H86.0587V15.5H82.7787ZM85.4787 9.6V6.72H92.7987V9.6H85.4787ZM103.615 15.88C102.681 15.88 101.855 15.72 101.135 15.4C100.428 15.08 99.8348 14.6533 99.3548 14.12C98.8881 13.5733 98.5281 12.9667 98.2748 12.3C98.0348 11.62 97.9148 10.9267 97.9148 10.22V9.82C97.9148 9.08667 98.0348 8.38667 98.2748 7.72C98.5281 7.04 98.8881 6.43333 99.3548 5.9C99.8214 5.36667 100.401 4.94667 101.095 4.64C101.801 4.32 102.601 4.16 103.495 4.16C104.668 4.16 105.655 4.42667 106.455 4.96C107.268 5.48 107.888 6.16667 108.315 7.02C108.741 7.86 108.955 8.78 108.955 9.78V10.86H99.2548V9.04H107.015L105.975 9.88C105.975 9.22667 105.881 8.66667 105.695 8.2C105.508 7.73333 105.228 7.38 104.855 7.14C104.495 6.88667 104.041 6.76 103.495 6.76C102.935 6.76 102.461 6.88667 102.075 7.14C101.688 7.39333 101.395 7.76667 101.195 8.26C100.995 8.74 100.895 9.33333 100.895 10.04C100.895 10.6933 100.988 11.2667 101.175 11.76C101.361 12.24 101.655 12.6133 102.055 12.88C102.455 13.1467 102.975 13.28 103.615 13.28C104.201 13.28 104.681 13.1667 105.055 12.94C105.428 12.7133 105.681 12.4333 105.815 12.1H108.755C108.595 12.8333 108.281 13.4867 107.815 14.06C107.348 14.6333 106.761 15.08 106.055 15.4C105.348 15.72 104.535 15.88 103.615 15.88ZM117.695 15.5V12.26H117.155V8.74C117.155 8.18 117.022 7.76 116.755 7.48C116.489 7.2 116.062 7.06 115.475 7.06C115.182 7.06 114.795 7.06667 114.315 7.08C113.835 7.09333 113.342 7.11333 112.835 7.14C112.329 7.16667 111.869 7.19333 111.455 7.22V4.52C111.762 4.49333 112.122 4.46667 112.535 4.44C112.949 4.41333 113.375 4.39333 113.815 4.38C114.255 4.36667 114.669 4.36 115.055 4.36C116.175 4.36 117.115 4.52 117.875 4.84C118.649 5.16 119.235 5.64667 119.635 6.3C120.035 6.94 120.235 7.76667 120.235 8.78V15.5H117.695ZM114.195 15.78C113.409 15.78 112.715 15.64 112.115 15.36C111.529 15.08 111.069 14.68 110.735 14.16C110.402 13.6267 110.235 12.9933 110.235 12.26C110.235 11.46 110.442 10.8067 110.855 10.3C111.269 9.78 111.849 9.4 112.595 9.16C113.342 8.90667 114.202 8.78 115.175 8.78H117.515V10.56H115.155C114.595 10.56 114.162 10.7 113.855 10.98C113.562 11.2467 113.415 11.6133 113.415 12.08C113.415 12.52 113.562 12.88 113.855 13.16C114.162 13.4267 114.595 13.56 115.155 13.56C115.515 13.56 115.835 13.5 116.115 13.38C116.409 13.2467 116.649 13.0267 116.835 12.72C117.022 12.4133 117.129 11.9867 117.155 11.44L117.915 12.24C117.849 13 117.662 13.64 117.355 14.16C117.062 14.68 116.649 15.08 116.115 15.36C115.595 15.64 114.955 15.78 114.195 15.78ZM124.894 15.5L121.614 4.54H124.914L127.994 15.5H124.894ZM125.894 15.5V12.84H129.114V15.5H125.894ZM127.074 15.5L129.734 4.54H132.814L129.974 15.5H127.074ZM139.474 15.88C138.541 15.88 137.714 15.72 136.994 15.4C136.287 15.08 135.694 14.6533 135.214 14.12C134.747 13.5733 134.387 12.9667 134.134 12.3C133.894 11.62 133.774 10.9267 133.774 10.22V9.82C133.774 9.08667 133.894 8.38667 134.134 7.72C134.387 7.04 134.747 6.43333 135.214 5.9C135.681 5.36667 136.261 4.94667 136.954 4.64C137.661 4.32 138.461 4.16 139.354 4.16C140.527 4.16 141.514 4.42667 142.314 4.96C143.127 5.48 143.747 6.16667 144.174 7.02C144.601 7.86 144.814 8.78 144.814 9.78V10.86H135.114V9.04H142.874L141.834 9.88C141.834 9.22667 141.741 8.66667 141.554 8.2C141.367 7.73333 141.087 7.38 140.714 7.14C140.354 6.88667 139.901 6.76 139.354 6.76C138.794 6.76 138.321 6.88667 137.934 7.14C137.547 7.39333 137.254 7.76667 137.054 8.26C136.854 8.74 136.754 9.33333 136.754 10.04C136.754 10.6933 136.847 11.2667 137.034 11.76C137.221 12.24 137.514 12.6133 137.914 12.88C138.314 13.1467 138.834 13.28 139.474 13.28C140.061 13.28 140.541 13.1667 140.914 12.94C141.287 12.7133 141.541 12.4333 141.674 12.1H144.614C144.454 12.8333 144.141 13.4867 143.674 14.06C143.207 14.6333 142.621 15.08 141.914 15.4C141.207 15.72 140.394 15.88 139.474 15.88ZM146.935 15.5V4.54H149.475V9.24H149.295C149.295 8.12 149.435 7.18667 149.715 6.44C150.008 5.69333 150.448 5.13333 151.035 4.76C151.621 4.38667 152.335 4.2 153.175 4.2H153.315C154.595 4.2 155.568 4.62 156.235 5.46C156.915 6.28667 157.255 7.54667 157.255 9.24V15.5H154.055V9.06C154.055 8.47333 153.881 7.99333 153.535 7.62C153.188 7.24667 152.721 7.06 152.135 7.06C151.535 7.06 151.048 7.25333 150.675 7.64C150.315 8.01333 150.135 8.50667 150.135 9.12V15.5H146.935Z" fill="#0B0B0B"/>
</svg>
