<svg xmlns="http://www.w3.org/2000/svg" width="25" height="24" viewBox="0 0 25 24" fill="none">
  <g clip-path="url(#clip0_13_2361)">
    <path d="M8.55234 7.33998L2.17234 8.26498L2.05934 8.28798C1.88828 8.3334 1.73233 8.42339 1.60743 8.54879C1.48253 8.67418 1.39314 8.83047 1.3484 9.00171C1.30366 9.17295 1.30516 9.35299 1.35276 9.52346C1.40036 9.69392 1.49235 9.8487 1.61934 9.97198L6.24134 14.471L5.15134 20.826L5.13834 20.936C5.12786 21.1129 5.1646 21.2894 5.24479 21.4475C5.32497 21.6055 5.44572 21.7395 5.59467 21.8355C5.74362 21.9315 5.91542 21.9863 6.09248 21.9941C6.26954 22.0019 6.4455 21.9625 6.60234 21.88L12.3083 18.88L18.0013 21.88L18.1013 21.926C18.2664 21.991 18.4458 22.0109 18.6211 21.9837C18.7964 21.9566 18.9613 21.8832 19.0989 21.7712C19.2365 21.6593 19.3419 21.5127 19.4042 21.3466C19.4665 21.1805 19.4834 21.0008 19.4533 20.826L18.3623 14.471L22.9863 9.97098L23.0643 9.88598C23.1758 9.74875 23.2488 9.58444 23.2761 9.40978C23.3033 9.23512 23.2838 9.05636 23.2194 8.89171C23.1551 8.72707 23.0483 8.58242 22.9098 8.4725C22.7714 8.36258 22.6063 8.29132 22.4313 8.26598L16.0513 7.33998L13.1993 1.55998C13.1168 1.39252 12.9891 1.2515 12.8305 1.15289C12.672 1.05428 12.489 1.00201 12.3023 1.00201C12.1156 1.00201 11.9327 1.05428 11.7741 1.15289C11.6156 1.2515 11.4879 1.39252 11.4053 1.55998L8.55234 7.33998Z" fill="#F9C004"/>
  </g>
  <defs>
    <clipPath id="clip0_13_2361">
      <rect width="24" height="24" fill="white" transform="translate(0.30957)"/>
    </clipPath>
  </defs>
</svg>