<svg width="158" height="20" viewBox="0 0 158 20" fill="none" xmlns="http://www.w3.org/2000/svg">
<path d="M8.04828 15.88C6.74161 15.88 5.60161 15.6667 4.62828 15.24C3.65495 14.8 2.84828 14.2133 2.20828 13.48C1.58161 12.7467 1.11495 11.9333 0.808281 11.04C0.501615 10.1467 0.348281 9.25333 0.348281 8.36V7.92C0.348281 7 0.501615 6.1 0.808281 5.22C1.11495 4.34 1.57495 3.54 2.18828 2.82C2.81495 2.1 3.58828 1.52667 4.50828 1.1C5.44161 0.673333 6.51495 0.459999 7.72828 0.459999C9.04828 0.459999 10.2149 0.706666 11.2283 1.2C12.2416 1.68 13.0549 2.35333 13.6683 3.22C14.2816 4.07333 14.6349 5.06667 14.7283 6.2H11.4483C11.3683 5.66667 11.1549 5.2 10.8083 4.8C10.4749 4.4 10.0416 4.08667 9.50828 3.86C8.98828 3.63333 8.39495 3.52 7.72828 3.52C7.08828 3.52 6.51495 3.63333 6.00828 3.86C5.51495 4.08667 5.08828 4.40667 4.72828 4.82C4.38161 5.23333 4.11495 5.72667 3.92828 6.3C3.75495 6.86 3.66828 7.48 3.66828 8.16C3.66828 8.86667 3.76161 9.51333 3.94828 10.1C4.14828 10.6733 4.43495 11.1733 4.80828 11.6C5.18161 12.0133 5.64161 12.3333 6.18828 12.56C6.74828 12.7867 7.36828 12.9 8.04828 12.9C8.95495 12.9 9.74161 12.7133 10.4083 12.34C11.0749 11.9667 11.5549 11.4733 11.8483 10.86L11.4483 13.1V9.62H14.4683V12.74C13.8416 13.7533 12.9749 14.5333 11.8683 15.08C10.7749 15.6133 9.50161 15.88 8.04828 15.88ZM7.62828 10.26V7.9H15.6683V10.26H7.62828ZM24.2284 15.5V12.26H23.6884V8.74C23.6884 8.18 23.5551 7.76 23.2884 7.48C23.0218 7.2 22.5951 7.06 22.0084 7.06C21.7151 7.06 21.3284 7.06667 20.8484 7.08C20.3684 7.09333 19.8751 7.11333 19.3684 7.14C18.8618 7.16667 18.4018 7.19333 17.9884 7.22V4.52C18.2951 4.49333 18.6551 4.46667 19.0684 4.44C19.4818 4.41333 19.9084 4.39333 20.3484 4.38C20.7884 4.36667 21.2018 4.36 21.5884 4.36C22.7084 4.36 23.6484 4.52 24.4084 4.84C25.1818 5.16 25.7684 5.64667 26.1684 6.3C26.5684 6.94 26.7684 7.76667 26.7684 8.78V15.5H24.2284ZM20.7284 15.78C19.9418 15.78 19.2484 15.64 18.6484 15.36C18.0618 15.08 17.6018 14.68 17.2684 14.16C16.9351 13.6267 16.7684 12.9933 16.7684 12.26C16.7684 11.46 16.9751 10.8067 17.3884 10.3C17.8018 9.78 18.3818 9.4 19.1284 9.16C19.8751 8.90667 20.7351 8.78 21.7084 8.78H24.0484V10.56H21.6884C21.1284 10.56 20.6951 10.7 20.3884 10.98C20.0951 11.2467 19.9484 11.6133 19.9484 12.08C19.9484 12.52 20.0951 12.88 20.3884 13.16C20.6951 13.4267 21.1284 13.56 21.6884 13.56C22.0484 13.56 22.3684 13.5 22.6484 13.38C22.9418 13.2467 23.1818 13.0267 23.3684 12.72C23.5551 12.4133 23.6618 11.9867 23.6884 11.44L24.4484 12.24C24.3818 13 24.1951 13.64 23.8884 14.16C23.5951 14.68 23.1818 15.08 22.6484 15.36C22.1284 15.64 21.4884 15.78 20.7284 15.78ZM34.0034 15.86C33.2301 15.86 32.5234 15.72 31.8834 15.44C31.2568 15.16 30.7101 14.7733 30.2434 14.28C29.7768 13.7733 29.4168 13.18 29.1634 12.5C28.9234 11.82 28.8034 11.0867 28.8034 10.3V9.84C28.8034 9.05333 28.9168 8.32 29.1434 7.64C29.3834 6.96 29.7234 6.36667 30.1634 5.86C30.6168 5.34 31.1568 4.94 31.7834 4.66C32.4101 4.36667 33.1101 4.22 33.8834 4.22C34.7634 4.22 35.5234 4.41333 36.1634 4.8C36.8034 5.17333 37.3034 5.73333 37.6634 6.48C38.0234 7.21333 38.2234 8.12 38.2634 9.2L37.4234 8.42V0.9H40.6434V15.5H38.1034V10.96H38.5434C38.5034 12 38.2834 12.8867 37.8834 13.62C37.4968 14.3533 36.9701 14.9133 36.3034 15.3C35.6368 15.6733 34.8701 15.86 34.0034 15.86ZM34.8034 13.18C35.2968 13.18 35.7434 13.0733 36.1434 12.86C36.5568 12.6333 36.8834 12.3067 37.1234 11.88C37.3768 11.4533 37.5034 10.94 37.5034 10.34V9.6C37.5034 9.01333 37.3768 8.52 37.1234 8.12C36.8701 7.72 36.5368 7.41333 36.1234 7.2C35.7101 6.98667 35.2634 6.88 34.7834 6.88C34.2501 6.88 33.7701 7.02 33.3434 7.3C32.9301 7.56667 32.6034 7.94 32.3634 8.42C32.1234 8.88667 32.0034 9.43333 32.0034 10.06C32.0034 10.7 32.1234 11.2533 32.3634 11.72C32.6034 12.1867 32.9368 12.5467 33.3634 12.8C33.7901 13.0533 34.2701 13.18 34.8034 13.18ZM47.8659 19.86C47.3326 19.86 46.7859 19.84 46.2259 19.8C45.6659 19.76 45.1526 19.7067 44.6859 19.64V16.94C45.1526 17.0067 45.6659 17.06 46.2259 17.1C46.7993 17.1533 47.3193 17.18 47.7859 17.18C48.6526 17.18 49.3526 17.08 49.8859 16.88C50.4326 16.68 50.8326 16.3733 51.0859 15.96C51.3393 15.56 51.4659 15.04 51.4659 14.4V12.22L52.0459 10.94C52.0193 11.9133 51.8259 12.7467 51.4659 13.44C51.1193 14.1333 50.6326 14.6667 50.0059 15.04C49.3793 15.4 48.6326 15.58 47.7659 15.58C47.0193 15.58 46.3393 15.4467 45.7259 15.18C45.1259 14.9 44.6126 14.5133 44.1859 14.02C43.7593 13.5267 43.4326 12.9533 43.2059 12.3C42.9793 11.6333 42.8659 10.9133 42.8659 10.14V9.68C42.8659 8.90667 42.9859 8.18667 43.2259 7.52C43.4659 6.85333 43.8126 6.27333 44.2659 5.78C44.7193 5.28667 45.2593 4.90667 45.8859 4.64C46.5126 4.36 47.2059 4.22 47.9659 4.22C48.8459 4.22 49.6059 4.41333 50.2459 4.8C50.8993 5.18667 51.4126 5.75333 51.7859 6.5C52.1593 7.24667 52.3593 8.14667 52.3859 9.2L51.9459 9.32V4.54H54.4859V14.2C54.4859 15.5467 54.2459 16.6333 53.7659 17.46C53.2859 18.2867 52.5526 18.8933 51.5659 19.28C50.5926 19.6667 49.3593 19.86 47.8659 19.86ZM48.7659 12.88C49.2593 12.88 49.7059 12.7733 50.1059 12.56C50.5059 12.3333 50.8193 12.0133 51.0459 11.6C51.2859 11.1867 51.4059 10.6867 51.4059 10.1V9.52C51.4059 8.94667 51.2793 8.46667 51.0259 8.08C50.7859 7.68 50.4659 7.38 50.0659 7.18C49.6659 6.96667 49.2393 6.86 48.7859 6.86C48.2526 6.86 47.7793 6.98667 47.3659 7.24C46.9526 7.49333 46.6326 7.84667 46.4059 8.3C46.1793 8.75333 46.0659 9.28667 46.0659 9.9C46.0659 10.5267 46.1793 11.0667 46.4059 11.52C46.6459 11.96 46.9659 12.3 47.3659 12.54C47.7793 12.7667 48.2459 12.88 48.7659 12.88ZM62.2769 15.88C61.3435 15.88 60.5169 15.72 59.7969 15.4C59.0902 15.08 58.4969 14.6533 58.0169 14.12C57.5502 13.5733 57.1902 12.9667 56.9369 12.3C56.6969 11.62 56.5769 10.9267 56.5769 10.22V9.82C56.5769 9.08667 56.6969 8.38667 56.9369 7.72C57.1902 7.04 57.5502 6.43333 58.0169 5.9C58.4835 5.36667 59.0635 4.94667 59.7569 4.64C60.4635 4.32 61.2635 4.16 62.1569 4.16C63.3302 4.16 64.3169 4.42667 65.1169 4.96C65.9302 5.48 66.5502 6.16667 66.9769 7.02C67.4035 7.86 67.6169 8.78 67.6169 9.78V10.86H57.9169V9.04H65.6769L64.6369 9.88C64.6369 9.22667 64.5435 8.66667 64.3569 8.2C64.1702 7.73333 63.8902 7.38 63.5169 7.14C63.1569 6.88667 62.7035 6.76 62.1569 6.76C61.5969 6.76 61.1235 6.88667 60.7369 7.14C60.3502 7.39333 60.0569 7.76667 59.8569 8.26C59.6569 8.74 59.5569 9.33333 59.5569 10.04C59.5569 10.6933 59.6502 11.2667 59.8369 11.76C60.0235 12.24 60.3169 12.6133 60.7169 12.88C61.1169 13.1467 61.6369 13.28 62.2769 13.28C62.8635 13.28 63.3435 13.1667 63.7169 12.94C64.0902 12.7133 64.3435 12.4333 64.4769 12.1H67.4169C67.2569 12.8333 66.9435 13.4867 66.4769 14.06C66.0102 14.6333 65.4235 15.08 64.7169 15.4C64.0102 15.72 63.1969 15.88 62.2769 15.88ZM74.7173 15.64C73.6107 15.64 72.7173 15.5067 72.0373 15.24C71.3573 14.96 70.8573 14.5 70.5373 13.86C70.2307 13.2067 70.0773 12.3267 70.0773 11.22V1.58H73.0573V11.34C73.0573 11.86 73.1907 12.26 73.4573 12.54C73.7373 12.8067 74.1307 12.94 74.6373 12.94H76.2573V15.64H74.7173ZM68.4173 6.88V4.54H76.2573V6.88H68.4173ZM92.2284 15.5V0.9H95.5084V15.5H92.2284ZM82.7884 15.5V0.9H86.0684V15.5H82.7884ZM85.4884 9.6V6.72H92.8084V9.6H85.4884ZM103.625 15.88C102.691 15.88 101.865 15.72 101.145 15.4C100.438 15.08 99.8445 14.6533 99.3645 14.12C98.8979 13.5733 98.5379 12.9667 98.2845 12.3C98.0445 11.62 97.9245 10.9267 97.9245 10.22V9.82C97.9245 9.08667 98.0445 8.38667 98.2845 7.72C98.5379 7.04 98.8979 6.43333 99.3645 5.9C99.8312 5.36667 100.411 4.94667 101.105 4.64C101.811 4.32 102.611 4.16 103.505 4.16C104.678 4.16 105.665 4.42667 106.465 4.96C107.278 5.48 107.898 6.16667 108.325 7.02C108.751 7.86 108.965 8.78 108.965 9.78V10.86H99.2645V9.04H107.025L105.985 9.88C105.985 9.22667 105.891 8.66667 105.705 8.2C105.518 7.73333 105.238 7.38 104.865 7.14C104.505 6.88667 104.051 6.76 103.505 6.76C102.945 6.76 102.471 6.88667 102.085 7.14C101.698 7.39333 101.405 7.76667 101.205 8.26C101.005 8.74 100.905 9.33333 100.905 10.04C100.905 10.6933 100.998 11.2667 101.185 11.76C101.371 12.24 101.665 12.6133 102.065 12.88C102.465 13.1467 102.985 13.28 103.625 13.28C104.211 13.28 104.691 13.1667 105.065 12.94C105.438 12.7133 105.691 12.4333 105.825 12.1H108.765C108.605 12.8333 108.291 13.4867 107.825 14.06C107.358 14.6333 106.771 15.08 106.065 15.4C105.358 15.72 104.545 15.88 103.625 15.88ZM117.705 15.5V12.26H117.165V8.74C117.165 8.18 117.032 7.76 116.765 7.48C116.498 7.2 116.072 7.06 115.485 7.06C115.192 7.06 114.805 7.06667 114.325 7.08C113.845 7.09333 113.352 7.11333 112.845 7.14C112.338 7.16667 111.878 7.19333 111.465 7.22V4.52C111.772 4.49333 112.132 4.46667 112.545 4.44C112.958 4.41333 113.385 4.39333 113.825 4.38C114.265 4.36667 114.678 4.36 115.065 4.36C116.185 4.36 117.125 4.52 117.885 4.84C118.658 5.16 119.245 5.64667 119.645 6.3C120.045 6.94 120.245 7.76667 120.245 8.78V15.5H117.705ZM114.205 15.78C113.418 15.78 112.725 15.64 112.125 15.36C111.538 15.08 111.078 14.68 110.745 14.16C110.412 13.6267 110.245 12.9933 110.245 12.26C110.245 11.46 110.452 10.8067 110.865 10.3C111.278 9.78 111.858 9.4 112.605 9.16C113.352 8.90667 114.212 8.78 115.185 8.78H117.525V10.56H115.165C114.605 10.56 114.172 10.7 113.865 10.98C113.572 11.2467 113.425 11.6133 113.425 12.08C113.425 12.52 113.572 12.88 113.865 13.16C114.172 13.4267 114.605 13.56 115.165 13.56C115.525 13.56 115.845 13.5 116.125 13.38C116.418 13.2467 116.658 13.0267 116.845 12.72C117.032 12.4133 117.138 11.9867 117.165 11.44L117.925 12.24C117.858 13 117.672 13.64 117.365 14.16C117.072 14.68 116.658 15.08 116.125 15.36C115.605 15.64 114.965 15.78 114.205 15.78ZM124.885 15.5L121.605 4.54H124.905L127.985 15.5H124.885ZM125.885 15.5V12.84H129.105V15.5H125.885ZM127.065 15.5L129.725 4.54H132.805L129.965 15.5H127.065ZM139.464 15.88C138.531 15.88 137.704 15.72 136.984 15.4C136.278 15.08 135.684 14.6533 135.204 14.12C134.738 13.5733 134.378 12.9667 134.124 12.3C133.884 11.62 133.764 10.9267 133.764 10.22V9.82C133.764 9.08667 133.884 8.38667 134.124 7.72C134.378 7.04 134.738 6.43333 135.204 5.9C135.671 5.36667 136.251 4.94667 136.944 4.64C137.651 4.32 138.451 4.16 139.344 4.16C140.518 4.16 141.504 4.42667 142.304 4.96C143.118 5.48 143.738 6.16667 144.164 7.02C144.591 7.86 144.804 8.78 144.804 9.78V10.86H135.104V9.04H142.864L141.824 9.88C141.824 9.22667 141.731 8.66667 141.544 8.2C141.358 7.73333 141.078 7.38 140.704 7.14C140.344 6.88667 139.891 6.76 139.344 6.76C138.784 6.76 138.311 6.88667 137.924 7.14C137.538 7.39333 137.244 7.76667 137.044 8.26C136.844 8.74 136.744 9.33333 136.744 10.04C136.744 10.6933 136.838 11.2667 137.024 11.76C137.211 12.24 137.504 12.6133 137.904 12.88C138.304 13.1467 138.824 13.28 139.464 13.28C140.051 13.28 140.531 13.1667 140.904 12.94C141.278 12.7133 141.531 12.4333 141.664 12.1H144.604C144.444 12.8333 144.131 13.4867 143.664 14.06C143.198 14.6333 142.611 15.08 141.904 15.4C141.198 15.72 140.384 15.88 139.464 15.88ZM146.925 15.5V4.54H149.465V9.24H149.285C149.285 8.12 149.425 7.18667 149.705 6.44C149.998 5.69333 150.438 5.13333 151.025 4.76C151.612 4.38667 152.325 4.2 153.165 4.2H153.305C154.585 4.2 155.558 4.62 156.225 5.46C156.905 6.28667 157.245 7.54667 157.245 9.24V15.5H154.045V9.06C154.045 8.47333 153.872 7.99333 153.525 7.62C153.178 7.24667 152.712 7.06 152.125 7.06C151.525 7.06 151.038 7.25333 150.665 7.64C150.305 8.01333 150.125 8.50667 150.125 9.12V15.5H146.925Z" fill="white"/>
</svg>
