<svg xmlns="http://www.w3.org/2000/svg" width="20" height="20" viewBox="0 0 20 20" fill="none">
  <g clip-path="url(#clip0_13_2159)">
    <path d="M16.2501 10.4767L10.0001 16.6667L3.75009 10.4767C3.33784 10.0755 3.01312 9.59334 2.79638 9.06052C2.57963 8.52771 2.47556 7.95579 2.4907 7.38077C2.50585 6.80576 2.63989 6.24011 2.88439 5.71944C3.12888 5.19878 3.47853 4.73437 3.91133 4.35548C4.34412 3.97658 4.85068 3.6914 5.3991 3.5179C5.94752 3.34439 6.52593 3.28631 7.09789 3.34733C7.66986 3.40834 8.223 3.58713 8.72248 3.87242C9.22196 4.15771 9.65696 4.54333 10.0001 5.00499C10.3447 4.54668 10.7802 4.16443 11.2793 3.88217C11.7785 3.5999 12.3305 3.4237 12.9009 3.36459C13.4712 3.30549 14.0477 3.36474 14.5941 3.53865C15.1405 3.71257 15.6451 3.99739 16.0764 4.3753C16.5077 4.75321 16.8563 5.21606 17.1004 5.7349C17.3446 6.25374 17.479 6.8174 17.4953 7.39058C17.5117 7.96377 17.4095 8.53416 17.1952 9.06604C16.9809 9.59792 16.6592 10.0798 16.2501 10.4817" stroke="#3A3A3A" stroke-width="1.5" stroke-linecap="round" stroke-linejoin="round"/>
  </g>
  <defs>
    <clipPath id="clip0_13_2159">
      <rect width="20" height="20" fill="white"/>
    </clipPath>
  </defs>
</svg>